<svg width="40" height="40" viewBox="0 0 40 40" fill="none" xmlns="http://www.w3.org/2000/svg">
<rect width="40" height="40" rx="8" fill="#212936"/>
<path d="M27 19H21.414L22.707 17.707C22.8926 17.5191 22.9963 17.2654 22.9954 17.0013C22.9946 16.7372 22.8893 16.4842 22.7026 16.2974C22.5158 16.1107 22.2628 16.0054 21.9987 16.0046C21.7346 16.0038 21.4809 16.1074 21.293 16.293L18.293 19.293C18.2001 19.3858 18.1264 19.4961 18.0761 19.6174C18.0259 19.7387 18 19.8687 18 20C18 20.1314 18.0259 20.2614 18.0761 20.3827C18.1264 20.504 18.2001 20.6142 18.293 20.7071L21.293 23.7071C21.4809 23.8926 21.7346 23.9963 21.9987 23.9955C22.2628 23.9946 22.5158 23.8894 22.7026 23.7026C22.8893 23.5159 22.9946 23.2628 22.9954 22.9987C22.9962 22.7346 22.8925 22.4809 22.707 22.293L21.414 21H27C27.2652 21 27.5195 20.8947 27.7071 20.7071C27.8946 20.5196 28 20.2652 28 20C28 19.7348 27.8946 19.4804 27.7071 19.2929C27.5195 19.1054 27.2652 19 27 19Z" fill="#E4E4E7"/>
<path d="M21.4141 21L22.7071 22.293C22.8009 22.3856 22.8754 22.4959 22.9264 22.6175C22.9775 22.739 23.004 22.8695 23.0044 23.0013C23.0048 23.1332 22.9791 23.2638 22.9289 23.3857C22.8786 23.5075 22.8047 23.6183 22.7115 23.7115C22.6183 23.8047 22.5075 23.8786 22.3856 23.9288C22.2638 23.9791 22.1331 24.0048 22.0013 24.0043C21.8695 24.0039 21.739 23.9774 21.6175 23.9264C21.4959 23.8754 21.3856 23.8008 21.293 23.707L18.293 20.707C18.2001 20.6142 18.1264 20.5039 18.0762 20.3826C18.0259 20.2613 18 20.1313 18 20C18 19.8687 18.0259 19.7386 18.0762 19.6173C18.1264 19.496 18.2001 19.3858 18.293 19.2929L21.293 16.2929C21.4809 16.1074 21.7346 16.0037 21.9987 16.0045C22.2628 16.0054 22.5159 16.1107 22.7026 16.2974C22.8893 16.4842 22.9946 16.7372 22.9954 17.0013C22.9963 17.2654 22.8926 17.5191 22.707 17.707L21.4141 19H26V13C25.9991 12.2046 25.6828 11.4421 25.1204 10.8796C24.5579 10.3172 23.7954 10.0009 23 10H15C14.2046 10.0009 13.4421 10.3172 12.8796 10.8796C12.3172 11.4421 12.0009 12.2046 12 13V27C12.0009 27.7954 12.3172 28.5579 12.8796 29.1204C13.4421 29.6828 14.2046 29.9991 15 30H23C23.7954 29.9991 24.5579 29.6828 25.1204 29.1204C25.6828 28.5579 25.9991 27.7954 26 27V21H21.4141Z" fill="#E4E4E7" fill-opacity="0.2"/>
</svg>
