<svg width="22" height="22" viewBox="0 0 22 22" fill="none" xmlns="http://www.w3.org/2000/svg">
<g clip-path="url(#clip0_1_1553)">
<path fill-rule="evenodd" clip-rule="evenodd" d="M2.35985 13.5313C2.85878 14.0274 2.85877 14.8316 2.35984 15.3277L2.33428 15.3531C1.83535 15.8491 1.02643 15.8491 0.527507 15.3531C0.0285846 14.857 0.0285922 14.0528 0.527525 13.5567L0.553076 13.5313C1.05201 13.0353 1.86093 13.0353 2.35985 13.5313Z" fill="#E4E4E7" fill-opacity="0.2"/>
<path fill-rule="evenodd" clip-rule="evenodd" d="M8.36604 13.9141C8.86407 14.411 8.86261 15.2153 8.36278 15.7104L4.82387 19.2162C4.32404 19.7113 3.51512 19.7099 3.0171 19.2129C2.51907 18.716 2.52053 17.9117 3.02036 17.4166L6.55927 13.9108C7.0591 13.4157 7.86802 13.4171 8.36604 13.9141Z" fill="#E4E4E7" fill-opacity="0.5"/>
<path fill-rule="evenodd" clip-rule="evenodd" d="M13.1693 19.9489C13.5607 19.3652 14.3539 19.2075 14.941 19.5966L15.0176 19.6475C15.6047 20.0366 15.7634 20.8252 15.372 21.4089C14.9806 21.9926 14.1874 22.1503 13.6003 21.7612L13.5236 21.7104C12.9365 21.3213 12.7779 20.5326 13.1693 19.9489Z" fill="#E4E4E7" fill-opacity="0.2"/>
<path fill-rule="evenodd" clip-rule="evenodd" d="M21.6004 13.4552C22.0993 13.9512 22.0993 14.7555 21.6004 15.2515L19.8629 16.979C19.3639 17.475 18.555 17.475 18.0561 16.979C17.5572 16.4829 17.5572 15.6787 18.0561 15.1826L19.7936 13.4552C20.2925 12.9591 21.1014 12.9591 21.6004 13.4552Z" fill="#E4E4E7" fill-opacity="0.5"/>
<path fill-rule="evenodd" clip-rule="evenodd" d="M21.6259 7.06601C22.1248 7.56205 22.1248 8.3663 21.6259 8.86235L8.7862 21.6279C8.28727 22.124 7.47835 22.124 6.97942 21.6279C6.48049 21.1319 6.48049 20.3276 6.97942 19.8316L19.8191 7.06601C20.3181 6.56996 21.127 6.56996 21.6259 7.06601Z" fill="#E4E4E7"/>
<path fill-rule="evenodd" clip-rule="evenodd" d="M19.1985 3.14108C19.6974 3.63713 19.6974 4.44138 19.1985 4.93742L11.814 12.2792C11.3151 12.7753 10.5062 12.7753 10.0073 12.2792C9.50832 11.7832 9.50832 10.9789 10.0073 10.4829L17.3917 3.14108C17.8906 2.64503 18.6995 2.64503 19.1985 3.14108Z" fill="#E4E4E7"/>
<path fill-rule="evenodd" clip-rule="evenodd" d="M15.3012 0.65085C15.8005 1.14656 15.801 1.95081 15.3024 2.4472L5.81 11.8975C5.31141 12.3939 4.50248 12.3945 4.00322 11.8987C3.50396 11.403 3.50341 10.5988 4.00201 10.1024L13.4945 0.652058C13.993 0.155678 14.802 0.155137 15.3012 0.65085Z" fill="#E4E4E7"/>
<path fill-rule="evenodd" clip-rule="evenodd" d="M5.9003 3.67607C6.39836 4.17297 6.39697 4.97722 5.89719 5.47242L2.17942 9.15602C1.67963 9.65121 0.87071 9.64983 0.372642 9.15293C-0.125426 8.65602 -0.124034 7.85178 0.375752 7.35658L4.09352 3.67298C4.59331 3.17779 5.40223 3.17917 5.9003 3.67607Z" fill="#E4E4E7" fill-opacity="0.5"/>
<path fill-rule="evenodd" clip-rule="evenodd" d="M8.17651 0C8.8821 0 9.4541 0.568691 9.4541 1.27021V1.39723C9.4541 2.09874 8.8821 2.66744 8.17651 2.66744C7.47092 2.66744 6.89893 2.09874 6.89893 1.39723V1.27021C6.89893 0.568691 7.47092 0 8.17651 0Z" fill="#E4E4E7" fill-opacity="0.2"/>
</g>
<defs>
<clipPath id="clip0_1_1553">
<rect width="22" height="22" fill="white"/>
</clipPath>
</defs>
</svg>
